<?xml version="1.0" encoding="UTF-8"?>
<!DOCTYPE svg PUBLIC "-//W3C//DTD SVG 1.1//EN" "http://www.w3.org/Graphics/SVG/1.1/DTD/svg11.dtd">
<svg version="1.2" xmlns="http://www.w3.org/2000/svg" xmlns:xlink="http://www.w3.org/1999/xlink" x="0" y="0" width="394" height="90" viewBox="0 0 394 90">
<style type="text/css"><![CDATA[
text { font:12px Dialog; }
]]></style>
<rect x="-487" y="-485" width="1369" height="1060" style="fill:rgb(255,255,255);stroke:none" />
<clipPath id="clip1"><path d="M12,14 L383,14 L383,76 L12,76 L12,14 Z" /></clipPath>
<path d="M21,15 C16.5817261,15 13,18.5817204 13,23 L13,66 C13,70.4182816 16.5817261,74 21,74 L373,74 C377.4182739,74 381,70.4182816 381,66 L381,23 C381,18.5817204 377.4182739,15 373,15 Z" style="fill:rgb(246,226,41);stroke:none" clip-path="url(#clip1)" />
<clipPath id="clip2"><path d="M43,29 L352,29 L352,61 L43,61 L43,29 Z" /></clipPath>
<path d="M53.7519836,34.03125 L57.2090149,34.03125 L57.2090149,44.90625 C57.2090149,46.328125 57.0839996,47.421875 56.8340149,48.1875 C56.4980621,49.1875 55.8886871,49.9902344 55.0058899,50.5957031 C54.1230621,51.2011719 52.9589996,51.5039063 51.5137024,51.5039063 C49.8183746,51.5039063 48.5136871,51.0292969 47.5996399,50.0800781 C46.6855774,49.1308594 46.2246246,47.7382813 46.2168274,45.9023438 L49.4863586,45.5273438 C49.5254059,46.5117188 49.6699371,47.2070313 49.9199524,47.6132813 C50.2949371,48.2304688 50.8652496,48.5390625 51.6308899,48.5390625 C52.4043274,48.5390625 52.9511871,48.3183594 53.2715149,47.8769531 C53.5918121,47.4355469 53.7519836,46.5195313 53.7519836,45.1289063 Z M60.5137024,44.8125 C60.5137024,43.71875 60.7832336,42.6601563 61.3222961,41.6367188 C61.8613586,40.6132813 62.6250153,39.8320313 63.6133118,39.2929688 C64.6015778,38.7539063 65.7051086,38.484375 66.9238586,38.484375 C68.8066559,38.484375 70.3496323,39.0957031 71.5527649,40.3183594 C72.7558823,41.5410156 73.3574524,43.0859375 73.3574524,44.953125 C73.3574524,46.8359375 72.7500229,48.3964844 71.5351868,49.6347656 C70.3203354,50.8730469 68.7910309,51.4921875 66.9472961,51.4921875 C65.8066559,51.4921875 64.7187653,51.234375 63.6836243,50.71875 C62.6484528,50.203125 61.8613586,49.4472656 61.3222961,48.4511719 C60.7832336,47.4550781 60.5137024,46.2421875 60.5137024,44.8125 Z M63.8887024,44.9882813 C63.8887024,46.2226563 64.1816711,47.1679688 64.7676086,47.8242188 C65.3535461,48.4804688 66.0761871,48.8085938 66.9355774,48.8085938 C67.7949371,48.8085938 68.5156403,48.4804688 69.0976868,47.8242188 C69.6797104,47.1679688 69.9707336,46.2148438 69.9707336,44.9648438 C69.9707336,43.7460938 69.6797104,42.8085938 69.0976868,42.1523438 C68.5156403,41.4960938 67.7949371,41.1679688 66.9355774,41.1679688 C66.0761871,41.1679688 65.3535461,41.4960938 64.7676086,42.1523438 C64.1816711,42.8085938 63.8887024,43.7539063 63.8887024,44.9882813 Z M76.1347961,38.765625 L79.1699524,38.765625 L79.1699524,40.4648438 C80.2558823,39.1445313 81.5488586,38.484375 83.0488586,38.484375 C83.8457336,38.484375 84.5371399,38.6484375 85.1230774,38.9765625 C85.7090149,39.3046875 86.1894836,39.8007813 86.5644836,40.4648438 C87.111351,39.8007813 87.7012024,39.3046875 88.3340149,38.9765625 C88.9668274,38.6484375 89.642601,38.484375 90.3613586,38.484375 C91.2754211,38.484375 92.0488586,38.6699219 92.6816711,39.0410156 C93.3144836,39.4121094 93.7871323,39.9570313 94.0996399,40.6757813 C94.3261948,41.2070313 94.4394836,42.0664063 94.4394836,43.2539063 L94.4394836,51.2109375 L91.1465149,51.2109375 L91.1465149,44.0976563 C91.1465149,42.8632813 91.033226,42.0664063 90.8066711,41.7070313 C90.5019836,41.2382813 90.0332336,41.0039063 89.4004211,41.0039063 C88.939476,41.0039063 88.5058823,41.1445313 88.0996399,41.4257813 C87.6933823,41.7070313 87.4004135,42.1191406 87.2207336,42.6621094 C87.0410385,43.2050781 86.9512024,44.0625 86.9512024,45.234375 L86.9512024,51.2109375 L83.6582336,51.2109375 L83.6582336,44.390625 C83.6582336,43.1796875 83.5996399,42.3984375 83.4824524,42.046875 C83.3652649,41.6953125 83.1836243,41.4335938 82.9375305,41.2617188 C82.6914368,41.0898438 82.3574524,41.0039063 81.9355774,41.0039063 C81.4277573,41.0039063 80.970726,41.140625 80.5644836,41.4140625 C80.158226,41.6875 79.867218,42.0820313 79.6914368,42.5976563 C79.5156555,43.1132813 79.4277649,43.96875 79.4277649,45.1640625 L79.4277649,51.2109375 L76.1347961,51.2109375 Z M97.2051086,47.6601563 L100.5097961,47.15625 C100.6504211,47.796875 100.9355698,48.2832031 101.3652649,48.6152344 C101.7949448,48.9472656 102.3965149,49.1132813 103.1699524,49.1132813 C104.0215073,49.1132813 104.6621323,48.9570313 105.0918274,48.6445313 C105.3808823,48.4257813 105.5254211,48.1328125 105.5254211,47.765625 C105.5254211,47.515625 105.4472885,47.3085938 105.2910461,47.1445313 C105.1269836,46.9882813 104.7597885,46.84375 104.1894836,46.7109375 C101.533226,46.125 99.8496323,45.5898438 99.1387024,45.1054688 C98.1543274,44.4335938 97.6621399,43.5 97.6621399,42.3046875 C97.6621399,41.2265625 98.0879135,40.3203125 98.9394836,39.5859375 C99.7910385,38.8515625 101.111351,38.484375 102.9004211,38.484375 C104.6035385,38.484375 105.8691635,38.7617188 106.6972961,39.3164063 C107.5254135,39.8710938 108.095726,40.6914063 108.4082336,41.7773438 L105.3027649,42.3515625 C105.1699448,41.8671875 104.9179916,41.4960938 104.5469055,41.2382813 C104.1758041,40.9804688 103.6465073,40.8515625 102.9590149,40.8515625 C102.0918274,40.8515625 101.4707336,40.9726563 101.0957336,41.2148438 C100.845726,41.3867188 100.7207336,41.609375 100.7207336,41.8828125 C100.7207336,42.1171875 100.830101,42.3164063 101.0488586,42.4804688 C101.345726,42.6992188 102.3711166,43.0078125 104.1250305,43.40625 C105.8789291,43.8046875 107.1035385,44.2929688 107.7988586,44.8710938 C108.486351,45.4570313 108.8301086,46.2734375 108.8301086,47.3203125 C108.8301086,48.4609375 108.3535385,49.4414063 107.4004211,50.2617188 C106.4472885,51.0820313 105.0371323,51.4921875 103.1699524,51.4921875 C101.4746323,51.4921875 100.1328354,51.1484375 99.1445618,50.4609375 C98.1562805,49.7734375 97.5097961,48.8398438 97.2051086,47.6601563 Z M111.3496399,44.8125 C111.3496399,43.71875 111.6191711,42.6601563 112.1582336,41.6367188 C112.6972961,40.6132813 113.4609604,39.8320313 114.4492493,39.2929688 C115.4375229,38.7539063 116.5410461,38.484375 117.7597961,38.484375 C119.642601,38.484375 121.1855698,39.0957031 122.3887024,40.3183594 C123.5918198,41.5410156 124.1933899,43.0859375 124.1933899,44.953125 C124.1933899,46.8359375 123.5859604,48.3964844 122.3711243,49.6347656 C121.1562729,50.8730469 119.626976,51.4921875 117.7832336,51.4921875 C116.642601,51.4921875 115.5547104,51.234375 114.5195618,50.71875 C113.4843979,50.203125 112.6972961,49.4472656 112.1582336,48.4511719 C111.6191711,47.4550781 111.3496399,46.2421875 111.3496399,44.8125 Z M114.7246399,44.9882813 C114.7246399,46.2226563 115.0176086,47.1679688 115.6035461,47.8242188 C116.1894836,48.4804688 116.9121323,48.8085938 117.7715149,48.8085938 C118.6308823,48.8085938 119.3515854,48.4804688 119.9336243,47.8242188 C120.5156479,47.1679688 120.8066711,46.2148438 120.8066711,44.9648438 C120.8066711,43.7460938 120.5156479,42.8085938 119.9336243,42.1523438 C119.3515854,41.4960938 118.6308823,41.1679688 117.7715149,41.1679688 C116.9121323,41.1679688 116.1894836,41.4960938 115.6035461,42.1523438 C115.0176086,42.8085938 114.7246399,43.7539063 114.7246399,44.9882813 Z M135.4082336,51.2109375 L135.4082336,49.3476563 C134.9551086,50.0117188 134.3594055,50.5351563 133.6211243,50.9179688 C132.882843,51.3007813 132.1035461,51.4921875 131.2832336,51.4921875 C130.4472961,51.4921875 129.6972961,51.3085938 129.0332336,50.9414063 C128.3691711,50.5742188 127.8886948,50.0585938 127.5918274,49.3945313 C127.2949448,48.7304688 127.1465149,47.8125 127.1465149,46.640625 L127.1465149,38.765625 L130.4394836,38.765625 L130.4394836,44.484375 C130.4394836,46.234375 130.5000305,47.3066406 130.6211243,47.7011719 C130.742218,48.0957031 130.9629211,48.4082031 131.2832336,48.6386719 C131.6035461,48.8691406 132.0097961,48.984375 132.5019836,48.984375 C133.0644836,48.984375 133.5683899,48.8300781 134.0137024,48.5214844 C134.4590149,48.2128906 134.7637024,47.8300781 134.9277649,47.3730469 C135.0918274,46.9160156 135.1738586,45.796875 135.1738586,44.015625 L135.1738586,38.765625 L138.4668274,38.765625 L138.4668274,51.2109375 Z M149.5293274,56.2617188 L149.5293274,33.7382813 L152.1426086,33.7382813 L152.1426086,56.2617188 Z M163.0293274,51.2109375 L163.0293274,34.03125 L166.4043274,34.03125 L173.4355774,45.5039063 L173.4355774,34.03125 L176.6582336,34.03125 L176.6582336,51.2109375 L173.1777649,51.2109375 L166.2519836,40.0078125 L166.2519836,51.2109375 Z M180.0566711,44.8125 C180.0566711,43.71875 180.3262024,42.6601563 180.8652649,41.6367188 C181.4043274,40.6132813 182.1679993,39.8320313 183.1562805,39.2929688 C184.1445618,38.7539063 185.2480774,38.484375 186.4668274,38.484375 C188.3496399,38.484375 189.8926086,39.0957031 191.0957336,40.3183594 C192.2988586,41.5410156 192.9004211,43.0859375 192.9004211,44.953125 C192.9004211,46.8359375 192.2929993,48.3964844 191.0781555,49.6347656 C189.8633118,50.8730469 188.3340149,51.4921875 186.4902649,51.4921875 C185.3496399,51.4921875 184.2617493,51.234375 183.226593,50.71875 C182.1914368,50.203125 181.4043274,49.4472656 180.8652649,48.4511719 C180.3262024,47.4550781 180.0566711,46.2421875 180.0566711,44.8125 Z M183.4316711,44.9882813 C183.4316711,46.2226563 183.7246399,47.1679688 184.3105774,47.8242188 C184.8965149,48.4804688 185.6191711,48.8085938 186.4785461,48.8085938 C187.3379211,48.8085938 188.0586243,48.4804688 188.6406555,47.8242188 C189.2226868,47.1679688 189.5137024,46.2148438 189.5137024,44.9648438 C189.5137024,43.7460938 189.2226868,42.8085938 188.6406555,42.1523438 C188.0586243,41.4960938 187.3379211,41.1679688 186.4785461,41.1679688 C185.6191711,41.1679688 184.8965149,41.4960938 184.3105774,42.1523438 C183.7246399,42.8085938 183.4316711,43.7539063 183.4316711,44.9882813 Z M201.6308899,38.765625 L201.6308899,41.390625 L199.3808899,41.390625 L199.3808899,46.40625 C199.3808899,47.421875 199.4023743,48.0136719 199.445343,48.1816406 C199.4883118,48.3496094 199.585968,48.4882813 199.7383118,48.5976563 C199.8906555,48.7070313 200.0762024,48.7617188 200.2949524,48.7617188 C200.5996399,48.7617188 201.0410461,48.65625 201.6191711,48.4453125 L201.9004211,51 C201.1347961,51.328125 200.2676086,51.4921875 199.2988586,51.4921875 C198.7051086,51.4921875 198.1699524,51.3925781 197.6933899,51.1933594 C197.2168274,50.9941406 196.867218,50.7363281 196.6445618,50.4199219 C196.4219055,50.1035156 196.2676086,49.6757813 196.1816711,49.1367188 C196.1113586,48.7539063 196.0762024,47.9804688 196.0762024,46.8164063 L196.0762024,41.390625 L194.5644836,41.390625 L194.5644836,38.765625 L196.0762024,38.765625 L196.0762024,36.2929688 L199.3808899,34.3710938 L199.3808899,38.765625 Z M211.3574524,47.25 L214.6387024,47.8007813 C214.2168274,49.0039063 213.5508118,49.9199219 212.6406555,50.5488281 C211.7304993,51.1777344 210.5918274,51.4921875 209.2246399,51.4921875 C207.0605774,51.4921875 205.4590149,50.7851563 204.4199524,49.3710938 C203.5996399,48.2382813 203.1894836,46.8085938 203.1894836,45.0820313 C203.1894836,43.0195313 203.7285461,41.4042969 204.8066711,40.2363281 C205.8847961,39.0683594 207.2480774,38.484375 208.8965149,38.484375 C210.7480774,38.484375 212.2090149,39.0957031 213.2793274,40.3183594 C214.3496399,41.5410156 214.8613586,43.4140625 214.8144836,45.9375 L206.5644836,45.9375 C206.5879211,46.9140625 206.8535461,47.6738281 207.3613586,48.2167969 C207.8691711,48.7597656 208.5019836,49.03125 209.2597961,49.03125 C209.7754211,49.03125 210.2090149,48.890625 210.5605774,48.609375 C210.9121399,48.328125 211.1777649,47.875 211.3574524,47.25 Z M211.5449524,43.921875 C211.5215149,42.96875 211.2754211,42.2441406 210.8066711,41.7480469 C210.3379211,41.2519531 209.7676086,41.0039063 209.0957336,41.0039063 C208.3769836,41.0039063 207.7832336,41.265625 207.3144836,41.7890625 C206.8457336,42.3125 206.6152649,43.0234375 206.6230774,43.921875 Z M224.0019836,44.8125 C224.0019836,43.71875 224.2715149,42.6601563 224.8105774,41.6367188 C225.3496399,40.6132813 226.1133118,39.8320313 227.101593,39.2929688 C228.0898743,38.7539063 229.1933899,38.484375 230.4121399,38.484375 C232.2949524,38.484375 233.8379211,39.0957031 235.0410461,40.3183594 C236.2441711,41.5410156 236.8457336,43.0859375 236.8457336,44.953125 C236.8457336,46.8359375 236.2383118,48.3964844 235.023468,49.6347656 C233.8086243,50.8730469 232.2793274,51.4921875 230.4355774,51.4921875 C229.2949524,51.4921875 228.2070618,51.234375 227.1719055,50.71875 C226.1367493,50.203125 225.3496399,49.4472656 224.8105774,48.4511719 C224.2715149,47.4550781 224.0019836,46.2421875 224.0019836,44.8125 Z M227.3769836,44.9882813 C227.3769836,46.2226563 227.6699524,47.1679688 228.2558899,47.8242188 C228.8418274,48.4804688 229.5644836,48.8085938 230.4238586,48.8085938 C231.2832336,48.8085938 232.0039368,48.4804688 232.585968,47.8242188 C233.1679993,47.1679688 233.4590149,46.2148438 233.4590149,44.9648438 C233.4590149,43.7460938 233.1679993,42.8085938 232.585968,42.1523438 C232.0039368,41.4960938 231.2832336,41.1679688 230.4238586,41.1679688 C229.5644836,41.1679688 228.8418274,41.4960938 228.2558899,42.1523438 C227.6699524,42.8085938 227.3769836,43.7539063 227.3769836,44.9882813 Z M238.4277649,38.765625 L240.2558899,38.765625 L240.2558899,37.828125 C240.2558899,36.78125 240.367218,36 240.5898743,35.484375 C240.8125305,34.96875 241.2226868,34.5488281 241.820343,34.2246094 C242.4179993,33.9003906 243.1738586,33.7382813 244.0879211,33.7382813 C245.0254211,33.7382813 245.9433899,33.8789063 246.8418274,34.1601563 L246.3965149,36.4570313 C245.8730774,36.3320313 245.3691711,36.2695313 244.8847961,36.2695313 C244.4082336,36.2695313 244.0664368,36.3808594 243.8594055,36.6035156 C243.6523743,36.8261719 243.5488586,37.2539063 243.5488586,37.8867188 L243.5488586,38.765625 L246.0097961,38.765625 L246.0097961,41.3554688 L243.5488586,41.3554688 L243.5488586,51.2109375 L240.2558899,51.2109375 L240.2558899,41.3554688 L238.4277649,41.3554688 Z M254.9980774,51.2109375 L254.9980774,34.03125 L262.2988586,34.03125 C264.1347961,34.03125 265.4687805,34.1855469 266.3008118,34.4941406 C267.132843,34.8027344 267.7988586,35.3515625 268.2988586,36.140625 C268.7988586,36.9296875 269.0488586,37.8320313 269.0488586,38.8476563 C269.0488586,40.1367188 268.6699524,41.2011719 267.9121399,42.0410156 C267.1543274,42.8808594 266.0215149,43.4101563 264.5137024,43.6289063 C265.2637024,44.0664063 265.882843,44.546875 266.3711243,45.0703125 C266.8594055,45.59375 267.5176086,46.5234375 268.3457336,47.859375 L270.4433899,51.2109375 L266.2949524,51.2109375 L263.7871399,47.4726563 C262.8965149,46.1367188 262.2871399,45.2949219 261.9590149,44.9472656 C261.6308899,44.5996094 261.2832336,44.3613281 260.9160461,44.2324219 C260.5488586,44.1035156 259.9668274,44.0390625 259.1699524,44.0390625 L258.4668274,44.0390625 L258.4668274,51.2109375 Z M258.4668274,41.296875 L261.0332336,41.296875 C262.6972961,41.296875 263.7363586,41.2265625 264.1504211,41.0859375 C264.5644836,40.9453125 264.8887024,40.703125 265.1230774,40.359375 C265.3574524,40.015625 265.4746399,39.5859375 265.4746399,39.0703125 C265.4746399,38.4921875 265.320343,38.0253906 265.0117493,37.6699219 C264.7031555,37.3144531 264.2676086,37.0898438 263.7051086,36.9960938 C263.4238586,36.9570313 262.5801086,36.9375 261.1738586,36.9375 L258.4668274,36.9375 Z M280.0176086,47.25 L283.2988586,47.8007813 C282.8769836,49.0039063 282.210968,49.9199219 281.3008118,50.5488281 C280.3906555,51.1777344 279.2519836,51.4921875 277.8847961,51.4921875 C275.7207336,51.4921875 274.1191711,50.7851563 273.0801086,49.3710938 C272.2597961,48.2382813 271.8496399,46.8085938 271.8496399,45.0820313 C271.8496399,43.0195313 272.3887024,41.4042969 273.4668274,40.2363281 C274.5449524,39.0683594 275.9082336,38.484375 277.5566711,38.484375 C279.4082336,38.484375 280.8691711,39.0957031 281.9394836,40.3183594 C283.0097961,41.5410156 283.5215149,43.4140625 283.4746399,45.9375 L275.2246399,45.9375 C275.2480774,46.9140625 275.5137024,47.6738281 276.0215149,48.2167969 C276.5293274,48.7597656 277.1621399,49.03125 277.9199524,49.03125 C278.4355774,49.03125 278.8691711,48.890625 279.2207336,48.609375 C279.5722961,48.328125 279.8379211,47.875 280.0176086,47.25 Z M280.2051086,43.921875 C280.1816711,42.96875 279.9355774,42.2441406 279.4668274,41.7480469 C278.9980774,41.2519531 278.4277649,41.0039063 277.7558899,41.0039063 C277.0371399,41.0039063 276.4433899,41.265625 275.9746399,41.7890625 C275.5058899,42.3125 275.2754211,43.0234375 275.2832336,43.921875 Z M289.0176086,42.5625 L286.0293274,42.0234375 C286.3652649,40.8203125 286.9433899,39.9296875 287.7637024,39.3515625 C288.5840149,38.7734375 289.8027649,38.484375 291.4199524,38.484375 C292.8887024,38.484375 293.9824524,38.6582031 294.7012024,39.0058594 C295.4199524,39.3535156 295.9258118,39.7949219 296.2187805,40.3300781 C296.5117493,40.8652344 296.6582336,41.8476563 296.6582336,43.2773438 L296.6230774,47.1210938 C296.6230774,48.2148438 296.6758118,49.0214844 296.7812805,49.5410156 C296.8867493,50.0605469 297.0840149,50.6171875 297.3730774,51.2109375 L294.1152649,51.2109375 C294.0293274,50.9921875 293.9238586,50.6679688 293.7988586,50.2382813 C293.7441711,50.0429688 293.7051086,49.9140625 293.6816711,49.8515625 C293.1191711,50.3984375 292.5176086,50.8085938 291.8769836,51.0820313 C291.2363586,51.3554688 290.5527649,51.4921875 289.8262024,51.4921875 C288.5449524,51.4921875 287.5351868,51.1445313 286.7969055,50.4492188 C286.0586243,49.7539063 285.6894836,48.875 285.6894836,47.8125 C285.6894836,47.109375 285.8574524,46.4824219 286.1933899,45.9316406 C286.5293274,45.3808594 287.0000305,44.9589844 287.6054993,44.6660156 C288.210968,44.3730469 289.0840149,44.1171875 290.2246399,43.8984375 C291.7637024,43.609375 292.8301086,43.3398438 293.4238586,43.0898438 L293.4238586,42.7617188 C293.4238586,42.1289063 293.2676086,41.6777344 292.9551086,41.4082031 C292.6426086,41.1386719 292.0527649,41.0039063 291.1855774,41.0039063 C290.5996399,41.0039063 290.1426086,41.1191406 289.8144836,41.3496094 C289.4863586,41.5800781 289.2207336,41.984375 289.0176086,42.5625 Z M293.4238586,45.234375 C293.0019836,45.375 292.3340149,45.5429688 291.4199524,45.7382813 C290.5058899,45.9335938 289.9082336,46.125 289.6269836,46.3125 C289.1972961,46.6171875 288.9824524,47.0039063 288.9824524,47.4726563 C288.9824524,47.9335938 289.1543274,48.3320313 289.4980774,48.6679688 C289.8418274,49.0039063 290.2793274,49.171875 290.8105774,49.171875 C291.4043274,49.171875 291.9707336,48.9765625 292.5097961,48.5859375 C292.9082336,48.2890625 293.1699524,47.9257813 293.2949524,47.4960938 C293.3808899,47.2148438 293.4238586,46.6796875 293.4238586,45.890625 Z M311.7168274,51.2109375 L308.6582336,51.2109375 L308.6582336,49.3828125 C308.1504211,50.09375 307.5508118,50.6230469 306.8594055,50.9707031 C306.1679993,51.3183594 305.4707336,51.4921875 304.7676086,51.4921875 C303.3379211,51.4921875 302.1133118,50.9160156 301.0937805,49.7636719 C300.0742493,48.6113281 299.5644836,47.0039063 299.5644836,44.9414063 C299.5644836,42.8320313 300.0605774,41.2285156 301.0527649,40.1308594 C302.0449524,39.0332031 303.2988586,38.484375 304.8144836,38.484375 C306.2051086,38.484375 307.4082336,39.0625 308.4238586,40.21875 L308.4238586,34.03125 L311.7168274,34.03125 Z M302.9277649,44.71875 C302.9277649,46.046875 303.1113586,47.0078125 303.4785461,47.6015625 C304.0097961,48.4609375 304.7519836,48.890625 305.7051086,48.890625 C306.4629211,48.890625 307.1074524,48.5683594 307.6387024,47.9238281 C308.1699524,47.2792969 308.4355774,46.3164063 308.4355774,45.0351563 C308.4355774,43.6054688 308.1777649,42.5761719 307.6621399,41.9472656 C307.1465149,41.3183594 306.4863586,41.0039063 305.6816711,41.0039063 C304.9004211,41.0039063 304.2461243,41.3144531 303.7187805,41.9355469 C303.1914368,42.5566406 302.9277649,43.484375 302.9277649,44.71875 Z M315.4082336,37.078125 L315.4082336,34.03125 L318.7012024,34.03125 L318.7012024,37.078125 Z M315.4082336,51.2109375 L315.4082336,38.765625 L318.7012024,38.765625 L318.7012024,51.2109375 Z M333.5957336,51.2109375 L330.3027649,51.2109375 L330.3027649,44.859375 C330.3027649,43.515625 330.2324524,42.6464844 330.0918274,42.2519531 C329.9512024,41.8574219 329.7226868,41.5507813 329.4062805,41.3320313 C329.0898743,41.1132813 328.7090149,41.0039063 328.2637024,41.0039063 C327.6933594,41.0039063 327.1816406,41.1601563 326.7285461,41.4726563 C326.2753906,41.7851563 325.9648438,42.1992188 325.7969055,42.7148438 C325.6289063,43.2304688 325.5449219,44.1835938 325.5449524,45.5742188 L325.5449524,51.2109375 L322.2519836,51.2109375 L322.2519836,38.765625 L325.3105774,38.765625 L325.3105774,40.59375 C326.3964844,39.1875 327.7636719,38.484375 329.4121399,38.484375 C330.1386719,38.484375 330.8027344,38.6152344 331.4043274,38.8769531 C332.0058594,39.1386719 332.4609375,39.4726563 332.7695618,39.8789063 C333.078125,40.2851563 333.2929688,40.7460938 333.414093,41.2617188 C333.5351563,41.7773438 333.5957336,42.515625 333.5957336,43.4765625 Z M337.0762024,52.03125 L340.8379211,52.4882813 C340.9003906,52.9257813 341.0449219,53.2265625 341.2715149,53.390625 C341.5839844,53.625 342.0761719,53.7421875 342.7480774,53.7421875 C343.6074219,53.7421875 344.2519531,53.6132813 344.6816711,53.3554688 C344.9707031,53.1835938 345.1894531,52.90625 345.3379211,52.5234375 C345.4394531,52.25 345.4902649,51.7460938 345.4902649,51.0117188 L345.4902649,49.1953125 C344.5058899,50.5390625 343.2637024,51.2109375 341.7637024,51.2109375 C340.0917969,51.2109375 338.7675781,50.5039063 337.7910461,49.0898438 C337.0253906,47.9726563 336.6426086,46.5820313 336.6426086,44.9179688 C336.6426086,42.8320313 337.1445313,41.2382813 338.148468,40.1367188 C339.1523438,39.0351563 340.4003906,38.484375 341.8926086,38.484375 C343.4316406,38.484375 344.7011719,39.1601563 345.7012024,40.5117188 L345.7012024,38.765625 L348.7832336,38.765625 L348.7832336,49.9335938 C348.7832336,51.4023438 348.6621094,52.5 348.4199524,53.2265625 C348.1777344,53.953125 347.8378906,54.5234375 347.4004211,54.9375 C346.9628906,55.3515625 346.3789063,55.6757813 345.648468,55.9101563 C344.9179688,56.1445313 343.9941406,56.2617188 342.8769836,56.2617188 C340.7676086,56.2617188 339.2714844,55.9003906 338.3887024,55.1777344 C337.5058594,54.4550781 337.0644531,53.5390625 337.0644836,52.4296875 C337.0644531,52.3203125 337.0683594,52.1875 337.0762024,52.03125 Z M340.0176086,44.7304688 C340.0176086,46.0507813 340.2734375,47.0175781 340.7851868,47.6308594 C341.296875,48.2441406 341.9277649,48.5507813 342.6777649,48.5507813 C343.4824219,48.5507813 344.1621094,48.2363281 344.7168274,47.6074219 C345.2714844,46.9785156 345.5488586,46.046875 345.5488586,44.8125 C345.5488586,43.5234375 345.2832031,42.5664063 344.7519836,41.9414063 C344.2207031,41.3164063 343.5488281,41.0039063 342.7363586,41.0039063 C341.9472656,41.0039063 341.296875,41.3105469 340.7851868,41.9238281 C340.2734375,42.5371094 340.0176086,43.4726563 340.0176086,44.7304688 Z" style="fill:rgb(22,115,126);stroke:none" clip-path="url(#clip2)" />
</svg>
